<svg xmlns="http://www.w3.org/2000/svg" width="4000" height="2477" viewBox="0 0 4000 2477" fill="none"><g clip-path="url(#clip0_45_161)"><path d="M430.01 467.327L429.022 463.916L522.051 406.048L544.085 392.385L636.877 334.24H639.542L641.378 335.069C641.221 421.072 641.102 507.076 640.964 593.099V593.632L430.01 467.327Z" fill="#F4A630"></path><path d="M847.833 205.81C904.713 240.294 961.692 274.542 1018.43 309.263C1033.12 318.253 1047.16 328.526 1061.53 338.207L888.247 442.961L882.324 445.287L859.146 459.148L852.73 461.061C851.94 413.149 851.249 365.199 850.38 317.268C849.748 280.536 848.959 243.843 848.228 207.091C848.189 206.638 848.05 206.204 847.833 205.81Z" fill="#246D42"></path><path d="M853.098 466.321C853.098 553.291 852.979 640.28 852.742 727.29C847.984 724.391 843.207 721.611 838.587 718.595L645.401 593.02C712.468 551.201 779.536 509.382 846.603 467.602L853.098 466.321Z" fill="#196594"></path><path d="M882.541 445.166L888.463 442.84L1061.49 338.283L1066.57 338.618C1066.57 419.476 1066.57 500.353 1066.57 581.25C1066.57 584.523 1069.51 587.757 1071.05 591.03L1068.24 595.249L856.874 466.145L859.362 459.146L882.541 445.166Z" fill="#1CABE2"></path><path d="M423.052 463.965L209.452 593.444C210.064 509.353 210.695 425.281 211.367 341.249L215.71 340.796L422.44 461.856C422.538 462.585 422.736 463.295 423.052 463.965Z" fill="#1CABE2"></path><path d="M1071.08 590.974C1069.54 587.701 1066.59 584.467 1066.59 581.194C1066.4 500.297 1066.4 419.42 1066.59 338.562L1279.46 466.01C1276.74 466.917 1274.09 468.041 1271.53 469.362C1204.66 509.998 1137.83 550.535 1071.08 590.974Z" fill="#1176B7"></path><path d="M645.328 592.89L838.514 718.485C843.153 721.502 847.911 724.281 852.669 727.18C852.669 727.949 852.669 728.737 852.669 729.487L641.439 851.887C641.143 851.414 640.866 850.901 640.61 850.389C640.827 827.813 641.399 805.218 641.182 782.327C640.55 720.713 639.583 659.138 638.753 597.504L640.827 593.521V592.989L645.328 592.89Z" fill="#1176B7"></path><path d="M638.844 597.497C639.674 659.112 640.642 720.687 641.293 782.321C641.51 804.896 640.937 827.472 640.72 850.363L432.076 727.055C431.819 726.365 431.681 725.616 431.642 724.867L638.844 597.497Z" fill="#368340"></path><path d="M432.075 727.012L640.719 850.201C640.956 850.714 641.233 851.206 641.549 851.68C641.332 852.468 641.154 853.257 640.937 854.006L431.661 981.454C430.989 981.198 430.318 981.001 429.647 980.863C429.647 899.414 429.647 817.945 429.647 736.456C430.022 733.203 430.831 730.009 432.075 727.012Z" fill="#A5CD3A"></path><path d="M638.844 597.461L431.641 724.83C430.812 663.886 429.785 602.923 429.193 541.979C428.976 517.096 429.746 492.214 430.062 467.332L640.937 593.458C640.246 594.819 639.515 596.14 638.844 597.461Z" fill="#246D42"></path><path d="M640.907 853.967C641.125 853.217 641.302 852.428 641.519 851.64L852.73 729.259C852.948 813.39 853.165 897.441 853.342 981.454C852.849 981.178 852.296 981.04 851.724 981.04L641.559 854.341L640.907 853.967Z" fill="#1CABE2"></path><path d="M1071.18 590.952C1138.09 550.435 1204.98 509.897 1271.89 469.34C1274.45 468.019 1277.1 466.915 1279.82 465.989C1279.29 547.438 1278.7 628.887 1278.03 710.317C1278.03 712.091 1273.96 715.601 1273.43 715.285C1205 675.418 1136.65 635.374 1068.37 595.171L1071.18 590.952Z" fill="#1D6995"></path><path d="M639.48 334.077H636.815L430.698 211.893C494.922 171.75 559.126 131.607 623.31 91.4443C629.806 87.8756 636.499 84.7209 643.37 82C642.363 88.2304 641.671 94.5201 641.276 100.829C640.566 178.631 639.954 256.393 639.48 334.077Z" fill="#2BABE2"></path><path d="M641.491 1365.9C612.232 1349.5 582.775 1333.47 553.812 1316.53C513.576 1292.93 473.695 1268.6 433.636 1244.58C436.854 1240.88 440.408 1237.49 444.238 1234.47C480.368 1211.07 516.636 1187.84 552.983 1164.75L636.594 1112.5L640.661 1112.96C640.938 1197.28 641.214 1281.59 641.491 1365.9Z" fill="#F9A330"></path><path d="M853.14 982.714C853.14 1065.9 853.14 1149.06 853.14 1232.23C853.14 1234.87 850.297 1237.45 848.797 1240.05L647.595 1112.07C652.452 1107.26 657.625 1102.85 663.114 1098.82C725.719 1059.9 788.422 1021.14 851.225 982.517H852.055L853.14 982.714Z" fill="#368340"></path><path d="M422.431 461.816L215.701 340.756L427.248 212.026V459.371L422.431 461.816Z" fill="#F0602B"></path><path d="M647.717 1112.2L848.919 1240.18C806.925 1266.14 765.07 1292.31 722.958 1317.98C696.048 1334.38 668.704 1350.02 641.577 1366.01C641.301 1281.7 641.025 1197.37 640.788 1113.06L641.538 1112.57L647.717 1112.2Z" fill="#A5CD3A"></path><path d="M207.775 595.796C140.945 636.452 74.0761 677.028 7.18673 717.566C6.49573 717.98 2.29014 714.806 2.29014 713.307C1.30299 633.731 0.533062 554.174 0 474.618C0 472.508 2.58658 470.359 3.94885 468.269L207.775 595.796Z" fill="#196594"></path><path d="M636.696 1112.51L553.105 1164.76L429.691 1237.33L429.395 985.731C429.631 985.77 429.849 985.77 430.086 985.711C430.303 985.652 430.5 985.533 430.698 985.395L636.696 1112.51Z" fill="#F17D22"></path><path d="M639.471 334.052C640.044 256.25 640.636 178.567 641.268 100.963C641.643 94.6534 642.334 88.3834 643.341 82.1529L847.82 205.914C848.057 206.269 848.234 206.683 848.313 207.117L645.395 334.506L641.288 334.841L639.471 334.052Z" fill="#1176B7"></path><path d="M207.751 595.795L4.04199 468.248L211.462 341.175C210.811 425.266 210.179 509.338 209.548 593.37L207.751 595.795Z" fill="#1176B7"></path><path d="M427.347 459.371V212.026H430.96L637.038 334.21L544.226 392.374L521.995 406.057L427.347 459.371Z" fill="#F17D22"></path><path d="M429.647 1237.32L553.06 1164.74C516.773 1187.93 480.525 1211.17 444.297 1234.46C440.466 1237.48 436.932 1240.87 433.694 1244.57L429.647 1237.32Z" fill="#FBC085"></path><path d="M427.363 459.346L522.07 406.032L429.041 463.939H423.04C422.724 463.249 422.526 462.5 422.427 461.751L427.363 459.346Z" fill="#FBC085"></path><path d="M859.173 459.041L856.705 466.04H852.914L846.597 467.322L848.867 463.556L852.736 460.993L859.173 459.041Z" fill="#AEC5CB"></path><path d="M430.718 985.291C430.54 985.449 430.322 985.547 430.086 985.606C429.868 985.665 429.631 985.665 429.395 985.626V980.854C430.105 980.992 430.777 981.209 431.448 981.466C431.27 982.747 431.014 984.009 430.718 985.291Z" fill="#FBC085"></path><path d="M853.203 982.791H851.503C851.621 982.376 851.721 981.942 851.8 981.508C852.353 981.488 852.926 981.626 853.42 981.942L853.203 982.791Z" fill="#AEC5CB"></path><path d="M848.942 463.543L846.672 467.309C779.624 509.089 712.557 550.908 645.49 592.726H641.107C641.245 506.723 641.364 420.719 641.502 334.695L645.589 334.36C648.847 338.146 652.439 341.576 656.368 344.593C720.454 384.44 784.659 424.09 848.942 463.543Z" fill="#A5CD3A"></path><path d="M848.926 463.539C784.682 424.007 720.458 384.436 656.234 344.806C652.325 341.789 648.712 338.359 645.455 334.573L848.334 207.007C849.064 243.739 849.854 280.451 850.505 317.183C851.354 365.094 852.046 413.065 852.835 460.976L848.926 463.539Z" fill="#368340"></path><path d="M430.578 985.372C430.854 984.09 431.111 982.808 431.407 981.606L640.861 854.039L641.512 854.552C641.512 940.497 641.512 1026.44 641.512 1112.37L640.742 1112.86L636.655 1112.41L430.578 985.372Z" fill="#F0602B"></path><path d="M641.532 1112.47C641.532 1026.57 641.532 940.622 641.532 854.678L851.716 981.377C851.637 981.791 851.539 982.205 851.421 982.619C788.697 1021.36 725.993 1060.12 663.309 1098.93C657.82 1102.93 652.648 1107.37 647.791 1112.18L641.532 1112.47Z" fill="#246D42"></path><path d="M1282.84 1365.99C1247.8 1367.04 1213.02 1359.41 1181.25 1343.68C1153.21 1328.73 1132.01 1302.93 1117.67 1266.27C1103.29 1229.63 1096.18 1178.49 1096.27 1112.85V910.354C1096.27 887.075 1093.97 870.313 1089.53 860.42C1085.12 850.498 1080.48 845.155 1075.72 845.155H1264.41C1259.62 845.155 1254.68 850.204 1249.5 860.42C1244.33 870.606 1241.86 887.31 1241.86 910.354V1128.32C1241.86 1174.12 1249.89 1206.85 1265.94 1226.49C1272.61 1235.5 1281.07 1242.84 1290.75 1247.92C1300.42 1253 1311.03 1255.73 1321.82 1255.87C1351.89 1255.87 1375.11 1248.42 1391.54 1233.53C1408.33 1217.98 1420.47 1197.51 1426.43 1174.7C1433.31 1149.72 1436.75 1123.83 1436.63 1097.79V910.354C1436.63 887.075 1434.4 870.46 1429.93 860.42C1425.49 850.644 1420.85 845.36 1416.09 844.656H1582.23V1289.4C1582.23 1312.65 1584.46 1329.29 1588.93 1339.33C1593.37 1349.52 1597.99 1354.6 1602.75 1354.6H1436.63V1311.8L1438.72 1289.96L1436.63 1287.81C1429.4 1299.17 1420.79 1309.45 1411 1318.34C1400.39 1328.03 1388.69 1336.28 1376.17 1342.88C1362.44 1350.08 1348.01 1355.54 1333.1 1359.24C1316.67 1363.58 1299.8 1365.84 1282.84 1365.99Z" fill="#2BABE2"></path><path d="M1879.69 1355.47C1884.54 1355.47 1889.27 1350.39 1894.06 1340.17C1898.79 1329.98 1901.23 1313.28 1901.23 1290.27V853.714C1901.23 837.744 1899.56 828.233 1896.12 825.18C1892.71 822.098 1880.77 820.747 1860.22 820.747H1785.21C1745.55 820.747 1713.6 825.327 1689.41 834.456C1665.19 843.586 1649.29 852.129 1641.7 860.055L1662.22 733.59V700.857H2297.95V733.59L2318.09 860.055C2310.59 852.07 2294.69 843.527 2270.47 834.456C2246.22 825.356 2214.26 820.806 2174.58 820.747H2100.77C2079.57 820.747 2067.26 822.244 2063.79 825.18C2060.38 828.027 2058.7 837.509 2058.7 853.714V1289.77C2058.7 1313.02 2061.08 1329.66 2065.88 1339.67C2070.64 1349.89 2075.46 1354.94 2080.25 1354.94L1879.69 1355.47Z" fill="#F0602B"></path><path d="M2566.61 1366.13C2512.58 1366.13 2467.63 1360.14 2431.74 1348.16C2399.58 1338.47 2370.19 1320.48 2346.14 1295.82C2324.71 1272.51 2309.19 1243.83 2301.05 1212.42C2291.67 1176.19 2287.18 1138.76 2287.65 1101.22C2287.65 1019.14 2309.16 954.115 2352.26 906.118C2395.32 858.15 2461.23 834.166 2549.97 834.166C2601.91 834.166 2644.12 841.799 2676.66 857.034C2706.18 869.892 2731.87 890.97 2751 918.095C2768.02 943.429 2780.05 972.168 2786.37 1002.55C2792.83 1033.17 2796.1 1064.43 2796.1 1095.79V1147.01C2796.1 1144.81 2786.69 1142.52 2767.91 1139.88C2736.37 1136.71 2704.71 1135.42 2673.02 1136.03H2435.39C2435.39 1176.02 2446.82 1205.99 2469.72 1225.98C2492.62 1245.94 2530.04 1255.92 2581.98 1255.92C2621.69 1256.57 2661.26 1250.87 2699.39 1239.01C2725.58 1231.44 2750.89 1220.67 2774.76 1206.93V1239.6L2785.01 1322.47C2771.99 1331.9 2747.09 1341.53 2710.14 1351.01C2673.17 1360.49 2625.4 1366.13 2566.61 1366.13ZM2473.28 1042.36H2650.62C2650.59 1026.18 2647.27 1010.18 2640.89 995.507C2634.16 979.977 2623.28 966.855 2609.61 957.843C2595.27 948.038 2575.43 943.136 2550.12 943.136C2529.19 942.226 2508.35 946.335 2489.12 955.142C2475.66 961.6 2464.08 971.757 2455.58 984.586C2448.73 995.095 2445 1007.48 2444.77 1020.25C2444.56 1023.31 2445 1026.36 2446.06 1029.18C2447.14 1032.03 2448.79 1034.55 2450.94 1036.6C2457.58 1041.07 2465.46 1043.09 2473.28 1042.36Z" fill="#F0602B"></path><path d="M3135.8 1366.03C3064.69 1366.03 3008.75 1354.41 2968.07 1331.13C2927.36 1307.88 2898.81 1276.26 2882.44 1236.28C2865.51 1193.51 2857.1 1147.48 2857.81 1101.1C2857.81 1012.41 2880.56 945.831 2926 901.387C2971.45 856.912 3037.94 834.748 3125.48 834.895C3167.55 834.572 3209.58 838.213 3251.06 845.816C3279.37 850.66 3307.29 857.558 3334.66 866.482V899.244L3354.79 1015.85C3339.77 1000.58 3312.61 984.787 3273.28 968.436C3233.98 952.055 3187.01 943.894 3132.39 943.894C3106.99 942.955 3081.77 948.767 3059.05 960.803C3039.47 972.193 3024.22 990.511 3015.96 1012.59C3005.9 1041.12 3001.2 1071.47 3002.14 1101.95C3002.14 1137.61 3007.25 1166.71 3017.51 1189.19C3027.77 1211.74 3045.76 1229.29 3067.78 1238.28C3090.97 1248.43 3121.75 1253.54 3160.02 1253.54C3208.61 1253.54 3248.85 1246.82 3280.81 1233.34C3312.73 1219.9 3334.1 1206.63 3344.86 1193.54V1226.3L3355.15 1313.46C3342.21 1325.11 3316.76 1336.74 3278.78 1348.33C3240.8 1359.93 3193.15 1365.83 3135.8 1366.03Z" fill="#F0602B"></path><path d="M3431.08 1355.44C3435.85 1355.44 3440.46 1350.36 3444.9 1340.15C3449.34 1329.96 3451.6 1313.26 3451.6 1290.24V668.365C3451.6 645.115 3449.34 628.559 3444.9 618.783C3440.46 609.037 3435.85 603.665 3431.08 602.96H3597.2V1015.03C3597.2 1031.03 3598.22 1040.66 3600.31 1043.92C3602.37 1047.2 3608.48 1048.85 3618.74 1048.85C3635.94 1048.35 3652.64 1042.65 3666.92 1032.44C3684.79 1020.05 3700.14 1003.93 3711.98 985.087C3726.24 962.923 3736.03 937.853 3740.73 911.462C3744.73 894.729 3746.82 877.526 3746.91 860.236C3746.23 850.049 3744.14 845 3740.73 845H3948.76C3943.88 845 3936.89 849.844 3927.66 859.678C3914.9 875.237 3904.38 892.674 3896.38 911.462C3883.92 939.027 3869.9 965.8 3854.41 991.574C3841.47 1013.3 3826.36 1033.41 3809.22 1051.55C3794.12 1067.46 3776.8 1080.87 3757.96 1091.35C3787.88 1104.39 3815.25 1123 3838.97 1146.37C3860.22 1167.8 3879.33 1191.58 3895.94 1217.26C3911.96 1242.27 3926.81 1266.43 3940.47 1289.74C3950.5 1307.97 3962.79 1324.76 3976.9 1339.65C3987.51 1349.86 3995.15 1354.94 4000 1354.94H3792.85C3796.94 1354.21 3798.49 1347.81 3797.49 1336.39C3796.47 1324.97 3789.41 1305.51 3776.45 1278.62C3764.63 1252.84 3749.26 1229.12 3730.8 1208.28C3714.86 1190.28 3696.17 1175.34 3675.45 1164.19C3657.84 1154.5 3638.38 1149.27 3618.54 1148.92C3607.6 1148.92 3601.22 1150.21 3599.55 1152.71C3597.87 1155.2 3597.02 1164.89 3597.02 1181.24V1289.16C3597.02 1312.41 3599.25 1329.05 3603.72 1339.09C3608.16 1349.31 3612.77 1354.35 3617.54 1354.35L3431.08 1355.44Z" fill="#F0602B"></path><path d="M533.866 1854.98C536.747 1854.98 539.569 1851.9 542.45 1845.85C545.859 1836.28 547.329 1826.07 546.741 1815.88V1542.11C546.741 1532.56 545.742 1526.93 543.655 1525.2C541.568 1523.49 534.484 1522.55 522.197 1522.55H477.428C458.056 1521.91 438.684 1524.67 420.135 1530.72C409.788 1533.8 400.089 1538.99 391.623 1546.04L403.911 1478.9V1463.93H766.824V1478.9L779.112 1546.04C770.617 1538.99 760.945 1533.8 750.598 1530.72C732.049 1524.67 712.679 1521.91 693.278 1522.55H649.126C636.457 1522.55 629.02 1523.43 627.079 1525.2C625.11 1526.99 623.963 1532.36 623.963 1542.11V1816.08C623.375 1826.3 624.846 1836.52 628.285 1846.06C631.166 1852.13 633.988 1855.19 636.868 1855.19L533.866 1854.98Z" fill="#063059"></path><path d="M910.225 1861.45C883.152 1862.24 856.108 1858.31 830.24 1849.76C811.28 1843.31 794.113 1832 780.268 1816.8C767.951 1802.65 759.073 1785.51 754.488 1766.86C749.373 1745.9 746.905 1724.33 747.169 1702.66C747.169 1653.61 760.251 1614.68 786.354 1585.97C812.486 1557.26 851.728 1543 904.111 1543.17C929.449 1542.17 954.67 1546.72 978.245 1556.59C995.294 1563.98 1010.14 1576.14 1021.19 1591.76C1030.89 1606.14 1037.74 1622.43 1041.33 1639.69C1044.91 1656.57 1046.77 1673.81 1046.82 1691.13V1721.77C1046.82 1720.51 1041.21 1719.07 1029.98 1717.58C1011.14 1715.67 992.179 1714.93 973.219 1715.29H818.246C818.246 1744.41 826.506 1767.19 843.056 1783.71C859.576 1800.24 885.063 1808.46 919.338 1808.46C944.382 1809.14 969.339 1805.29 993.149 1797.04C1008.2 1792.26 1022.31 1784.65 1034.83 1774.56V1790.2L1040.92 1835.2C1026.25 1843.22 1010.55 1849.03 994.354 1852.47C966.752 1858.95 938.503 1861.98 910.225 1861.45ZM842.204 1667.93H977.041C976.894 1656.57 974.63 1645.39 970.338 1634.97C965.752 1623.52 958.081 1613.77 948.263 1606.96C934.858 1598.54 919.395 1594.54 903.845 1595.54C889.206 1595.04 874.656 1598.07 861.252 1604.38C850.758 1609.34 841.527 1616.91 834.413 1626.48C828.299 1634.59 824.949 1644.63 824.89 1655.02C824.743 1656.84 825.008 1658.66 825.654 1660.36C826.301 1662.06 827.3 1663.59 828.564 1664.79C832.68 1667.41 837.442 1668.49 842.204 1667.93Z" fill="#063059"></path><path d="M1236.48 1861.45C1194 1861.45 1160.58 1854.49 1136.24 1840.6C1113.52 1828.42 1095.41 1808.28 1085.06 1783.54C1074.95 1757.97 1069.95 1730.46 1070.36 1702.72C1070.36 1649.76 1083.95 1609.98 1111.14 1583.45C1138.36 1556.94 1178.1 1543.67 1230.36 1543.67C1256.76 1543.29 1283.13 1545.49 1309.14 1550.21C1324.9 1552.89 1340.39 1557.02 1355.44 1562.57V1577.6L1367.67 1638.9C1359.53 1629.74 1343.86 1620.26 1320.69 1610.36C1293.09 1599.8 1263.87 1594.84 1234.54 1595.75C1218.13 1595.45 1201.85 1598.8 1186.71 1605.49C1172.28 1612.21 1160.46 1623.93 1153.14 1638.75C1145 1654.34 1140.94 1675.74 1140.94 1702.92C1140.94 1730.14 1145.41 1751.21 1154.35 1766.13C1163.02 1781.3 1176.54 1792.64 1192.41 1798.1C1235.45 1811.57 1281.39 1810.1 1323.58 1793.9C1342.56 1784.97 1355.38 1776.2 1361.88 1767.51V1782.48L1367.99 1829.42C1360.29 1836.55 1345.06 1843.33 1322.37 1850.23C1294.36 1858.16 1265.46 1861.92 1236.48 1861.45Z" fill="#063059"></path><path d="M1398.36 1854.96C1401.24 1854.96 1404.01 1851.88 1406.68 1845.83C1409.86 1836.2 1411.18 1826.01 1410.65 1815.86V1444.3C1411.21 1434.23 1409.86 1424.19 1406.68 1414.68C1404.01 1408.84 1401.24 1405.64 1398.36 1405.2H1481.76V1583.53L1480.55 1591.96L1481.76 1593.31C1487.43 1585.35 1494.02 1578.16 1501.37 1571.91C1511.33 1563.42 1522.53 1556.7 1534.49 1552C1550.02 1545.99 1566.45 1543.11 1582.94 1543.52C1620.92 1543.52 1649.99 1555.06 1670.18 1578.1C1690.35 1601.18 1700.46 1637.23 1700.49 1686.25V1816.06C1699.96 1826.25 1701.31 1836.4 1704.46 1846.03C1707.13 1852.11 1709.9 1855.16 1712.78 1855.16H1617.83C1620.71 1855.16 1623.47 1852.11 1626.15 1846.03C1629.35 1836.43 1630.76 1826.25 1630.26 1816.06V1688.1C1631 1669.02 1628.21 1649.97 1622 1632.03C1617.77 1620.02 1609.75 1609.92 1599.31 1603.49C1588.96 1597.83 1577.41 1595.01 1565.77 1595.3C1551.84 1595.3 1538.08 1598.65 1525.53 1605.08C1512.3 1611.95 1501.34 1622.84 1493.99 1636.37C1485.11 1653.87 1480.85 1673.6 1481.7 1693.44V1816.06C1481.14 1826.25 1482.49 1836.4 1485.67 1846.03C1488.34 1852.11 1491.08 1855.16 1493.99 1855.16L1398.36 1854.96Z" fill="#063059"></path><path d="M1743.41 1854.94C1746.32 1854.94 1749.05 1851.86 1751.73 1845.81C1754.9 1836.18 1756.25 1826.02 1755.69 1815.83V1595.49C1756.25 1585.45 1754.93 1575.38 1751.73 1565.9C1749.05 1559.97 1746.32 1556.86 1743.41 1556.42C1760.08 1556.5 1776.71 1555.1 1793.14 1552.19C1804.55 1550.34 1815.78 1547.37 1826.68 1543.35V1583.16L1825.48 1591.58L1826.68 1592.94C1832.39 1584.98 1839 1577.79 1846.35 1571.53C1856.28 1563.05 1867.46 1556.33 1879.42 1551.63C1894.94 1545.61 1911.37 1542.74 1927.86 1543.15C1965.84 1543.15 1994.91 1554.68 2015.08 1577.73C2035.27 1600.8 2045.39 1636.85 2045.42 1685.88V1816.07C2044.89 1826.23 2046.21 1836.41 2049.38 1846.01C2052.06 1852.09 2054.82 1855.14 2057.7 1855.14H1962.96C1965.78 1855.14 1968.52 1852.09 1971.22 1846.01C1974.37 1836.41 1975.72 1826.23 1975.16 1816.07V1688.11C1975.92 1669 1973.13 1649.94 1966.9 1632.01C1962.7 1620 1954.67 1609.93 1944.24 1603.5C1933.89 1597.81 1922.34 1594.99 1910.7 1595.28C1896.76 1595.28 1882.98 1598.63 1870.43 1605.06C1857.26 1611.96 1846.26 1622.85 1838.88 1636.38C1830.01 1653.88 1825.77 1673.58 1826.63 1693.45V1816.07C1826.04 1826.23 1827.42 1836.41 1830.65 1846.01C1833.27 1852.09 1836 1855.14 1838.88 1855.14L1743.41 1854.94Z" fill="#063059"></path><path d="M2239.32 1861.49C2198.46 1861.49 2166.48 1854.53 2143.38 1840.64C2121.51 1828.14 2104.43 1807.97 2094.99 1783.57C2085.47 1757.86 2080.76 1730.41 2081.18 1702.79C2080.7 1674.87 2085.61 1647.13 2095.58 1621.32C2105.46 1597.11 2122.56 1577.03 2144.32 1564.26C2167.16 1549.99 2198.84 1542.86 2239.32 1542.86C2279.8 1542.86 2311.49 1549.99 2334.39 1564.26C2356.11 1577.03 2373.25 1597.11 2383.09 1621.32C2393.06 1647.16 2397.97 1674.87 2397.53 1702.79C2397.91 1730.41 2393.24 1757.86 2383.71 1783.57C2374.33 1807.94 2357.35 1828.11 2335.59 1840.64C2312.55 1854.59 2280.48 1861.54 2239.32 1861.49ZM2239.32 1808.7C2257.81 1809.79 2276.3 1805.86 2293 1797.28C2305.78 1789.71 2315.37 1777.23 2319.84 1762.41C2325.42 1743.21 2328.01 1723.19 2327.48 1703.14C2327.98 1682.91 2325.27 1662.75 2319.48 1643.49C2314.78 1628.63 2305.26 1615.98 2292.65 1607.82C2280.18 1599.84 2262.46 1595.78 2239.59 1595.78C2221.36 1594.79 2203.25 1599.07 2187.18 1608.2C2174.33 1616.48 2164.78 1629.46 2160.34 1644.72C2154.81 1663.92 2152.22 1683.91 2152.7 1703.99C2152.22 1723.63 2154.81 1743.21 2160.34 1761.97C2164.86 1776.85 2174.42 1789.42 2187.18 1797.23C2203.31 1805.83 2221.27 1809.88 2239.32 1809V1808.7Z" fill="#063059"></path><path d="M2427.7 1854.98C2430.58 1854.98 2433.35 1851.9 2436.02 1845.85C2439.17 1836.22 2440.52 1826.06 2439.99 1815.88V1444.32C2440.55 1434.28 2439.2 1424.21 2436.02 1414.73C2433.35 1408.86 2430.58 1405.66 2427.7 1405.25C2445.66 1405.54 2463.62 1404.13 2481.38 1401.02C2491.61 1399.49 2501.6 1396.56 2511.1 1392.24V1816.11C2510.54 1826.27 2511.89 1836.46 2515.07 1846.06C2517.74 1852.13 2520.51 1855.18 2523.39 1855.18L2427.7 1854.98Z" fill="#063059"></path><path d="M2710.8 1861.49C2669.91 1861.49 2637.93 1854.53 2614.85 1840.64C2592.98 1828.17 2575.85 1808 2566.41 1783.57C2556.89 1757.86 2552.18 1730.41 2552.6 1702.79C2552.15 1674.87 2557.06 1647.16 2567 1621.32C2576.88 1597.11 2593.98 1577.03 2615.74 1564.26C2638.66 1549.99 2670.35 1542.86 2710.8 1542.86C2751.25 1542.86 2782.91 1549.99 2805.81 1564.26C2827.53 1577.03 2844.67 1597.11 2854.51 1621.32C2864.48 1647.16 2869.39 1674.87 2868.95 1702.79C2869.48 1730.38 2864.92 1757.83 2855.51 1783.57C2846.08 1807.91 2829.09 1828.08 2807.33 1840.64C2784.26 1854.59 2752.07 1861.54 2710.8 1861.49ZM2710.8 1808.7C2729.2 1809.73 2747.54 1805.83 2764.12 1797.28C2776.91 1789.68 2786.49 1777.23 2790.96 1762.41C2796.55 1743.21 2799.13 1723.19 2798.63 1703.14C2799.16 1682.91 2796.49 1662.78 2790.7 1643.49C2785.96 1628.63 2776.47 1616.01 2763.86 1607.82C2751.39 1599.84 2733.76 1595.78 2710.86 1595.78C2692.66 1594.79 2674.56 1599.07 2658.45 1608.2C2645.63 1616.48 2636.08 1629.46 2631.64 1644.72C2626.02 1663.89 2623.44 1683.91 2623.91 1703.99C2623.41 1723.63 2626.02 1743.24 2631.64 1761.97C2636.14 1776.85 2645.72 1789.42 2658.45 1797.23C2674.67 1805.83 2692.69 1809.88 2710.8 1809V1808.7Z" fill="#063059"></path><path d="M3044.93 2014C3023.09 2014.15 3001.25 2012.41 2979.68 2008.77C2962.24 2005.9 2945.05 2001.64 2928.21 1996.09C2916.59 1992.42 2905.33 1987.52 2894.66 1981.47L2906.92 1909.73V1890.88C2914.27 1902.83 2923.32 1913.49 2933.76 1922.47C2947.52 1934.47 2963.07 1943.96 2979.73 1950.5C2999.72 1958.37 3020.95 1962.22 3042.26 1961.86C3065.51 1961.86 3083.41 1957.52 3095.93 1948.86C3108.22 1940.14 3117.25 1927.08 3121.36 1911.99C3126.24 1893.91 3128.5 1875.12 3128.06 1856.3V1836.75L3129.3 1825.04L3128.06 1823.69C3121.8 1831.52 3114.25 1838.04 3105.72 1842.94C3095.34 1849.11 3084.18 1853.72 3072.59 1856.65C3059.4 1859.97 3045.87 1861.58 3032.32 1861.5C2995.11 1861.5 2966.04 1854.54 2945.11 1840.65C2924.79 1827.41 2909.27 1807.33 2900.96 1783.59C2883.79 1731.04 2883.79 1673.88 2900.96 1621.34C2909.39 1597.67 2924.88 1577.59 2945.11 1564.27C2965.98 1550 2995.08 1542.87 3032.32 1542.87C3045.84 1542.72 3059.37 1544.16 3072.59 1547.15C3083.68 1549.59 3094.46 1553.29 3104.78 1558.19C3113.54 1562.27 3121.45 1568.14 3128.06 1575.45L3129.3 1574.81L3128.06 1562.42V1549.41H3210.87C3207.99 1549.85 3205.22 1553.14 3202.55 1559.19C3199.38 1569.02 3198.02 1579.41 3198.58 1589.81V1839.45C3198.58 1902.42 3186.03 1947.16 3160.9 1973.69C3135.76 2000.23 3097.11 2013.68 3044.93 2014ZM3040.64 1808.71C3058.51 1809.59 3076.33 1805.81 3092.52 1797.65C3105.43 1790.19 3115.25 1777.89 3120.1 1763.12C3126.12 1743.81 3128.91 1723.49 3128.36 1703.15C3128.89 1682.87 3125.98 1662.67 3119.74 1643.5C3114.69 1628.62 3104.96 1616.02 3092.17 1607.83C3076.33 1599.02 3058.54 1594.86 3040.64 1595.8C3024.03 1594.97 3007.54 1599.29 2993.14 1608.18C2980.82 1616.87 2971.62 1629.76 2967.12 1644.73C2956.69 1683.01 2956.69 1723.67 2967.12 1761.98C2971.56 1776.69 2980.82 1789.19 2993.23 1797.24C3007.75 1805.57 3024.12 1809.65 3040.64 1808.98V1808.71Z" fill="#063059"></path><path d="M3289.54 1491.95C3283.96 1492.3 3278.37 1491.42 3273.08 1489.43C3267.82 1487.37 3263 1484.26 3258.88 1480.18C3251.91 1472.4 3248.03 1462.07 3248.03 1451.32C3248.03 1440.58 3251.91 1430.25 3258.88 1422.47C3267.73 1415.13 3278.63 1411.13 3289.86 1411.13C3301.09 1411.13 3311.97 1415.13 3320.82 1422.47C3324.34 1426.28 3327.11 1430.83 3328.96 1435.82C3330.78 1440.81 3331.63 1446.16 3331.49 1451.5C3331.58 1456.81 3330.66 1462.07 3328.75 1466.97C3326.87 1471.9 3324.05 1476.33 3320.49 1480.03C3316.38 1484.17 3311.5 1487.37 3306.18 1489.4C3300.86 1491.45 3295.21 1492.33 3289.54 1491.95ZM3247.89 1854.97C3250.71 1854.97 3253.59 1851.89 3256.47 1845.84C3259.88 1836.27 3261.35 1826.05 3260.76 1815.86V1589.03C3261.35 1578.96 3260 1568.83 3256.73 1559.35C3254.12 1553.51 3251.3 1550.37 3248.47 1549.93H3331.22V1816.07C3330.66 1826.26 3332.02 1836.44 3335.25 1846.04C3337.87 1852.09 3340.6 1855.17 3343.51 1855.17L3247.89 1854.97Z" fill="#063059"></path><path d="M3531.1 1861.44C3504.03 1862.23 3476.98 1858.27 3451.11 1849.73C3432.16 1843.3 3414.99 1831.97 3401.14 1816.76C3388.83 1802.64 3379.95 1785.5 3375.36 1766.86C3370.25 1745.9 3367.78 1724.29 3368.07 1702.66C3368.07 1653.57 3381.13 1614.68 3407.23 1585.94C3433.36 1557.23 3472.6 1542.96 3524.99 1543.16C3550.21 1542.2 3575.34 1546.75 3598.8 1556.55C3615.82 1563.98 3630.66 1576.13 3641.75 1591.72C3651.45 1606.07 3658.29 1622.4 3661.88 1639.66C3665.53 1656.54 3667.38 1673.8 3667.44 1691.09V1721.77C3667.44 1720.47 3661.79 1719.07 3650.53 1717.57C3631.69 1715.66 3612.76 1714.9 3593.83 1715.28H3438.77C3438.77 1744.37 3447.06 1767.18 3463.61 1783.68C3480.1 1800.23 3505.61 1808.43 3539.89 1808.43C3564.93 1809.13 3589.89 1805.28 3613.7 1797.03C3628.72 1792.22 3642.86 1784.62 3655.36 1774.55V1790.17L3661.47 1835.2C3646.77 1843.21 3631.1 1848.99 3614.91 1852.46C3587.39 1858.92 3559.26 1861.94 3531.1 1861.44ZM3463.05 1667.9H3597.92C3597.77 1656.57 3595.48 1645.35 3591.21 1634.96C3586.63 1623.48 3578.96 1613.74 3569.14 1606.93C3555.73 1598.5 3540.27 1594.54 3524.72 1595.51C3510.08 1595.04 3495.53 1598.06 3482.13 1604.34C3471.64 1609.3 3462.4 1616.91 3455.29 1626.48C3449.18 1634.58 3445.83 1644.62 3445.77 1655.01C3445.62 1656.83 3445.88 1658.65 3446.53 1660.35C3447.18 1662.03 3448.18 1663.55 3449.44 1664.79C3453.53 1667.37 3458.32 1668.49 3463.05 1667.9Z" fill="#063059"></path><path d="M3856.2 1861.45C3824.27 1861.92 3792.41 1859.74 3760.84 1854.96C3743.02 1852.61 3725.45 1848.24 3708.46 1841.9V1826.92L3695.58 1768.3C3706.16 1776.99 3725.3 1786 3752.9 1795.31C3785.53 1805.49 3819.48 1810.28 3853.49 1809.6C3869.57 1810.1 3885.62 1808.58 3901.32 1805.02C3909.99 1803.5 3917.84 1798.92 3923.72 1792.05C3927.54 1786.59 3929.57 1779.95 3929.51 1773.14C3929.69 1769.24 3929.04 1765.34 3927.54 1761.78C3926.07 1758.2 3923.81 1755.06 3920.93 1752.59C3911.52 1746.02 3900.85 1741.79 3889.68 1740.18C3874.57 1736.98 3852.32 1733.54 3822.57 1730.14C3796.08 1727.41 3770.04 1721.07 3745.08 1711.23C3729.36 1705.39 3715.78 1694.26 3706.43 1679.56C3698.9 1665.35 3695.2 1649.26 3695.7 1632.97C3695.46 1616.18 3700.26 1599.71 3709.37 1586C3718.57 1572.29 3731.53 1562.05 3746.55 1556.73C3765.81 1548.01 3793 1543.67 3828.12 1543.67C3859.58 1543.29 3890.97 1545.46 3922.1 1550.24C3940.36 1552.65 3958.32 1557 3975.78 1563.22V1578.28L3988.01 1630.41C3978.16 1622.99 3959.7 1615.38 3932.45 1607.58C3899.88 1599.06 3866.46 1595.1 3832.94 1595.8C3807.14 1595.8 3789.68 1598.86 3780.45 1604.93C3776.33 1607.4 3772.92 1611.01 3770.51 1615.36C3768.16 1619.7 3766.92 1624.66 3767.04 1629.71C3766.92 1634.97 3768.22 1640.19 3770.71 1644.74C3774.3 1650.05 3779.33 1654.13 3785.09 1656.45C3795.44 1660.89 3806.23 1664.09 3817.28 1665.94C3831.54 1668.7 3850.76 1671.6 3874.89 1674.71C3909.67 1678.65 3935.95 1684.84 3953.67 1693.24C3968.66 1699.28 3981.48 1710.26 3990.18 1724.56C3996.91 1737.89 4000.26 1752.83 4000 1767.92C4000.38 1785.8 3995.3 1803.32 3985.54 1817.85C3973.63 1833.44 3957.46 1844.71 3939.24 1850.11C3912.34 1858.57 3884.3 1862.39 3856.2 1861.45Z" fill="#063059"></path><path d="M460.388 2218.63C453.937 2218.63 446.873 2218.33 439.194 2217.74C431.668 2217.14 424.604 2216.1 418 2214.62V2065.19C424.604 2063.7 431.822 2062.66 439.655 2062.07C447.487 2061.32 454.628 2060.95 461.079 2060.95C478.74 2060.95 494.175 2063.78 507.382 2069.43C520.744 2075.08 531.187 2083.7 538.712 2095.3C546.238 2106.89 550 2121.69 550 2139.68C550 2157.37 546.238 2172.09 538.712 2183.84C531.341 2195.44 520.897 2204.13 507.382 2209.93C494.021 2215.73 478.356 2218.63 460.388 2218.63ZM462.23 2198.78C483.271 2198.78 499.012 2193.58 509.456 2183.17C519.899 2172.61 525.121 2158.12 525.121 2139.68C525.121 2121.09 519.976 2106.67 509.686 2096.41C499.396 2086 483.808 2080.8 462.922 2080.8C456.932 2080.8 452.248 2080.95 448.869 2081.25C445.644 2081.54 443.264 2081.84 441.728 2082.14V2197.67C443.11 2197.82 445.337 2198.04 448.408 2198.34C451.48 2198.63 456.087 2198.78 462.23 2198.78Z" fill="#F0602B"></path><path d="M565.163 2217.07V2100.87H588.2V2217.07H565.163ZM576.682 2076.12C572.535 2076.12 569.003 2074.85 566.085 2072.32C563.167 2069.65 561.708 2066.08 561.708 2061.62C561.708 2057.16 563.167 2053.66 566.085 2051.14C569.003 2048.46 572.535 2047.12 576.682 2047.12C580.828 2047.12 584.36 2048.46 587.278 2051.14C590.196 2053.66 591.655 2057.16 591.655 2061.62C591.655 2066.08 590.196 2069.65 587.278 2072.32C584.36 2074.85 580.828 2076.12 576.682 2076.12Z" fill="#F0602B"></path><path d="M647.822 2259C640.296 2259 633.155 2258.41 626.398 2257.22C619.64 2256.03 613.727 2254.54 608.659 2252.76L612.806 2233.8C617.26 2235.43 622.558 2236.85 628.701 2238.04C634.844 2239.37 641.372 2240.04 648.283 2240.04C656.576 2240.04 663.256 2239 668.324 2236.92C673.546 2234.84 677.309 2231.57 679.612 2227.11C682.07 2222.65 683.298 2217 683.298 2210.16V2203.91C680.687 2205.4 676.925 2207.03 672.01 2208.82C667.249 2210.45 661.413 2211.27 654.502 2211.27C644.52 2211.27 635.536 2209.34 627.549 2205.47C619.563 2201.46 613.267 2195.36 608.659 2187.18C604.206 2179.01 601.979 2168.6 601.979 2155.96C601.979 2144.81 604.282 2134.92 608.89 2126.3C613.651 2117.67 620.408 2110.91 629.162 2106C637.916 2101.1 648.359 2098.64 660.492 2098.64C670.321 2098.64 679.075 2099.31 686.754 2100.65C694.433 2101.99 700.806 2103.4 705.874 2104.89V2207.7C705.874 2225.69 701.037 2238.7 691.361 2246.73C681.839 2254.91 667.326 2259 647.822 2259ZM657.036 2192.76C662.412 2192.76 667.403 2192.02 672.01 2190.53C676.771 2189.04 680.457 2187.26 683.068 2185.18V2119.61C680.918 2119.01 678.077 2118.49 674.544 2118.05C671.166 2117.45 666.558 2117.15 660.722 2117.15C653.197 2117.15 646.824 2118.79 641.602 2122.06C636.38 2125.33 632.387 2129.94 629.623 2135.89C626.858 2141.69 625.476 2148.45 625.476 2156.18C625.476 2162.58 626.321 2168.08 628.01 2172.69C629.7 2177.3 632.003 2181.09 634.921 2184.06C637.839 2187.04 641.141 2189.27 644.827 2190.75C648.666 2192.09 652.736 2192.76 657.036 2192.76Z" fill="#F0602B"></path><path d="M726.159 2217.07V2100.87H749.196V2217.07H726.159ZM737.678 2076.12C733.531 2076.12 729.999 2074.85 727.081 2072.32C724.163 2069.65 722.704 2066.08 722.704 2061.62C722.704 2057.16 724.163 2053.66 727.081 2051.14C729.999 2048.46 733.531 2047.12 737.678 2047.12C741.824 2047.12 745.356 2048.46 748.274 2051.14C751.192 2053.66 752.651 2057.16 752.651 2061.62C752.651 2066.08 751.192 2069.65 748.274 2072.32C745.356 2074.85 741.824 2076.12 737.678 2076.12Z" fill="#F0602B"></path><path d="M811.121 2219.52C800.217 2219.52 791.617 2217.74 785.32 2214.17C779.177 2210.45 774.8 2205.03 772.189 2197.89C769.732 2190.75 768.504 2182.13 768.504 2172.02V2068.98L791.31 2065.19V2100.87H836.231V2119.38H791.31V2172.69C791.31 2179.68 792.155 2185.25 793.844 2189.41C795.533 2193.43 797.991 2196.25 801.216 2197.89C804.594 2199.53 808.741 2200.34 813.656 2200.34C818.877 2200.34 823.408 2199.82 827.247 2198.78C831.24 2197.59 834.542 2196.48 837.153 2195.44L841.069 2213.06C838.151 2214.39 834.081 2215.81 828.86 2217.29C823.638 2218.78 817.725 2219.52 811.121 2219.52Z" fill="#F0602B"></path><path d="M884.918 2219.52C875.703 2219.52 867.487 2218.33 860.269 2215.96C853.204 2213.58 847.675 2209.64 843.682 2204.13C839.689 2198.63 837.693 2191.42 837.693 2182.5C837.693 2173.73 839.92 2166.74 844.374 2161.54C848.827 2156.18 854.894 2152.32 862.573 2149.94C870.251 2147.56 878.775 2146.37 888.143 2146.37C892.443 2146.37 896.744 2146.67 901.044 2147.26C905.498 2147.86 908.416 2148.45 909.798 2149.05V2143.69C909.798 2138.94 909.107 2134.55 907.724 2130.54C906.342 2126.52 903.731 2123.25 899.892 2120.72C896.206 2118.19 890.677 2116.93 883.306 2116.93C875.627 2116.93 869.33 2117.45 864.415 2118.49C859.655 2119.53 855.892 2120.57 853.127 2121.61L850.133 2103.33C853.204 2102.14 857.888 2101.02 864.185 2099.98C870.482 2098.79 877.546 2098.2 885.379 2098.2C897.051 2098.2 906.265 2100.05 913.023 2103.77C919.934 2107.49 924.848 2112.77 927.766 2119.61C930.684 2126.3 932.143 2134.03 932.143 2142.8V2214.17C928.304 2215.06 922.161 2216.18 913.714 2217.52C905.267 2218.85 895.669 2219.52 884.918 2219.52ZM887.222 2201.46C891.983 2201.46 896.283 2201.31 900.122 2201.01C904.115 2200.72 907.341 2200.34 909.798 2199.9V2165.55C908.416 2164.96 906.035 2164.36 902.656 2163.77C899.278 2163.17 895.208 2162.87 890.447 2162.87C885.686 2162.87 881.002 2163.39 876.395 2164.44C871.941 2165.33 868.178 2167.11 865.107 2169.79C862.189 2172.46 860.73 2176.55 860.73 2182.05C860.73 2189.34 863.11 2194.4 867.871 2197.22C872.632 2200.05 879.082 2201.46 887.222 2201.46Z" fill="#F0602B"></path><path d="M988.893 2219.08C979.678 2218.78 972.306 2217.44 966.778 2215.06C961.249 2212.54 957.256 2208.82 954.799 2203.91C952.495 2199.01 951.343 2192.69 951.343 2184.95V2047.79L974.149 2044V2182.05C974.149 2188.75 975.378 2193.36 977.835 2195.88C980.446 2198.41 985.207 2200.05 992.118 2200.79L988.893 2219.08Z" fill="#F0602B"></path><path d="M1039.04 2217.07V2062.51H1062.77V2217.07H1039.04Z" fill="#F0602B"></path><path d="M1084.97 2217.07V2104.89C1090.19 2103.55 1096.87 2102.21 1105.01 2100.87C1113.15 2099.39 1122.51 2098.64 1133.11 2098.64C1146.01 2098.64 1155.99 2100.87 1163.06 2105.33C1170.28 2109.79 1175.35 2116.04 1178.26 2124.07C1181.18 2131.95 1182.64 2141.24 1182.64 2151.95V2217.07H1159.83V2156.41C1159.83 2146.89 1158.91 2139.38 1157.07 2133.88C1155.38 2128.23 1152.46 2124.14 1148.32 2121.61C1144.17 2119.09 1138.33 2117.82 1130.81 2117.82C1125.74 2117.82 1121.06 2118.12 1116.76 2118.71C1112.61 2119.16 1109.69 2119.61 1108 2120.05V2217.07H1084.97Z" fill="#F0602B"></path><path d="M1201.8 2217.07V2104.89C1207.02 2103.55 1213.7 2102.21 1221.84 2100.87C1229.98 2099.39 1239.35 2098.64 1249.94 2098.64C1262.84 2098.64 1272.83 2100.87 1279.89 2105.33C1287.11 2109.79 1292.18 2116.04 1295.09 2124.07C1298.01 2131.95 1299.47 2141.24 1299.47 2151.95V2217.07H1276.66V2156.41C1276.66 2146.89 1275.74 2139.38 1273.9 2133.88C1272.21 2128.23 1269.29 2124.14 1265.15 2121.61C1261 2119.09 1255.16 2117.82 1247.64 2117.82C1242.57 2117.82 1237.89 2118.12 1233.59 2118.71C1229.44 2119.16 1226.52 2119.61 1224.83 2120.05V2217.07H1201.8Z" fill="#F0602B"></path><path d="M1368.62 2219.97C1357.56 2219.97 1347.73 2217.44 1339.13 2212.39C1330.68 2207.33 1324.08 2200.27 1319.32 2191.2C1314.56 2181.98 1312.18 2171.2 1312.18 2158.86C1312.18 2146.67 1314.56 2136.04 1319.32 2126.97C1324.23 2117.9 1330.91 2110.83 1339.36 2105.78C1347.96 2100.72 1357.71 2098.2 1368.62 2098.2C1379.67 2098.2 1389.43 2100.72 1397.87 2105.78C1406.32 2110.83 1412.92 2117.9 1417.68 2126.97C1422.6 2136.04 1425.06 2146.67 1425.06 2158.86C1425.06 2171.2 1422.67 2181.98 1417.91 2191.2C1413.15 2200.27 1406.55 2207.33 1398.1 2212.39C1389.81 2217.44 1379.98 2219.97 1368.62 2219.97ZM1368.62 2200.57C1375.53 2200.57 1381.36 2198.86 1386.12 2195.44C1391.04 2192.02 1394.8 2187.18 1397.41 2180.94C1400.18 2174.7 1401.56 2167.34 1401.56 2158.86C1401.56 2150.53 1400.18 2143.25 1397.41 2137C1394.8 2130.76 1391.04 2126 1386.12 2122.73C1381.36 2119.31 1375.53 2117.6 1368.62 2117.6C1361.86 2117.6 1356.02 2119.31 1351.11 2122.73C1346.19 2126 1342.35 2130.76 1339.59 2137C1336.98 2143.25 1335.67 2150.53 1335.67 2158.86C1335.67 2167.34 1336.98 2174.7 1339.59 2180.94C1342.35 2187.18 1346.19 2192.02 1351.11 2195.44C1356.02 2198.86 1361.86 2200.57 1368.62 2200.57Z" fill="#F0602B"></path><path d="M1467.66 2217.07C1463.82 2209.34 1459.9 2201.01 1455.91 2192.09C1451.92 2183.17 1448 2173.8 1444.16 2163.99C1440.32 2154.03 1436.56 2143.84 1432.87 2133.43C1429.34 2122.88 1426.04 2112.02 1422.97 2100.87H1447.16C1449.46 2110.39 1452.3 2120.65 1455.68 2131.65C1459.21 2142.65 1462.97 2153.43 1466.97 2163.99C1470.96 2174.4 1474.72 2183.62 1478.26 2191.65C1481.02 2185.7 1483.86 2179.01 1486.78 2171.57C1489.7 2163.99 1492.54 2156.18 1495.3 2148.15C1498.07 2139.98 1500.68 2131.87 1503.14 2123.84C1505.59 2115.67 1507.67 2108.01 1509.36 2100.87H1532.62C1529.55 2112.02 1526.25 2122.88 1522.72 2133.43C1519.18 2143.84 1515.42 2154.03 1511.43 2163.99C1507.59 2173.8 1503.67 2183.17 1499.68 2192.09C1495.84 2201.01 1491.92 2209.34 1487.93 2217.07H1467.66Z" fill="#F0602B"></path><path d="M1576.37 2219.52C1567.16 2219.52 1558.94 2218.33 1551.72 2215.96C1544.66 2213.58 1539.13 2209.64 1535.13 2204.13C1531.14 2198.63 1529.15 2191.42 1529.15 2182.5C1529.15 2173.73 1531.37 2166.74 1535.83 2161.54C1540.28 2156.18 1546.35 2152.32 1554.02 2149.94C1561.7 2147.56 1570.23 2146.37 1579.6 2146.37C1583.9 2146.37 1588.2 2146.67 1592.5 2147.26C1596.95 2147.86 1599.87 2148.45 1601.25 2149.05V2143.69C1601.25 2138.94 1600.56 2134.55 1599.18 2130.54C1597.79 2126.52 1595.18 2123.25 1591.34 2120.72C1587.66 2118.19 1582.13 2116.93 1574.76 2116.93C1567.08 2116.93 1560.78 2117.45 1555.87 2118.49C1551.11 2119.53 1547.34 2120.57 1544.58 2121.61L1541.58 2103.33C1544.66 2102.14 1549.34 2101.02 1555.64 2099.98C1561.93 2098.79 1569 2098.2 1576.83 2098.2C1588.5 2098.2 1597.72 2100.05 1604.48 2103.77C1611.39 2107.49 1616.3 2112.77 1619.22 2119.61C1622.14 2126.3 1623.6 2134.03 1623.6 2142.8V2214.17C1619.76 2215.06 1613.61 2216.18 1605.17 2217.52C1596.72 2218.85 1587.12 2219.52 1576.37 2219.52ZM1578.67 2201.46C1583.43 2201.46 1587.74 2201.31 1591.57 2201.01C1595.57 2200.72 1598.79 2200.34 1601.25 2199.9V2165.55C1599.87 2164.96 1597.49 2164.36 1594.11 2163.77C1590.73 2163.17 1586.66 2162.87 1581.9 2162.87C1577.14 2162.87 1572.45 2163.39 1567.85 2164.44C1563.39 2165.33 1559.63 2167.11 1556.56 2169.79C1553.64 2172.46 1552.18 2176.55 1552.18 2182.05C1552.18 2189.34 1554.56 2194.4 1559.32 2197.22C1564.08 2200.05 1570.53 2201.46 1578.67 2201.46Z" fill="#F0602B"></path><path d="M1684.49 2219.52C1673.59 2219.52 1664.99 2217.74 1658.69 2214.17C1652.55 2210.45 1648.17 2205.03 1645.56 2197.89C1643.1 2190.75 1641.87 2182.13 1641.87 2172.02V2068.98L1664.68 2065.19V2100.87H1709.6V2119.38H1664.68V2172.69C1664.68 2179.68 1665.52 2185.25 1667.21 2189.41C1668.9 2193.43 1671.36 2196.25 1674.59 2197.89C1677.96 2199.53 1682.11 2200.34 1687.03 2200.34C1692.25 2200.34 1696.78 2199.82 1700.62 2198.78C1704.61 2197.59 1707.91 2196.48 1710.52 2195.44L1714.44 2213.06C1711.52 2214.39 1707.45 2215.81 1702.23 2217.29C1697.01 2218.78 1691.1 2219.52 1684.49 2219.52Z" fill="#F0602B"></path><path d="M1721.16 2217.07V2100.87H1744.19V2217.07H1721.16ZM1732.67 2076.12C1728.53 2076.12 1725 2074.85 1722.08 2072.32C1719.16 2069.65 1717.7 2066.08 1717.7 2061.62C1717.7 2057.16 1719.16 2053.66 1722.08 2051.14C1725 2048.46 1728.53 2047.12 1732.67 2047.12C1736.82 2047.12 1740.35 2048.46 1743.27 2051.14C1746.19 2053.66 1747.65 2057.16 1747.65 2061.62C1747.65 2066.08 1746.19 2069.65 1743.27 2072.32C1740.35 2074.85 1736.82 2076.12 1732.67 2076.12Z" fill="#F0602B"></path><path d="M1814.41 2219.97C1803.35 2219.97 1793.52 2217.44 1784.92 2212.39C1776.48 2207.33 1769.87 2200.27 1765.11 2191.2C1760.35 2181.98 1757.97 2171.2 1757.97 2158.86C1757.97 2146.67 1760.35 2136.04 1765.11 2126.97C1770.03 2117.9 1776.71 2110.83 1785.16 2105.78C1793.76 2100.72 1803.51 2098.2 1814.41 2098.2C1825.47 2098.2 1835.22 2100.72 1843.67 2105.78C1852.12 2110.83 1858.72 2117.9 1863.48 2126.97C1868.39 2136.04 1870.85 2146.67 1870.85 2158.86C1870.85 2171.2 1868.47 2181.98 1863.71 2191.2C1858.95 2200.27 1852.35 2207.33 1843.9 2212.39C1835.61 2217.44 1825.78 2219.97 1814.41 2219.97ZM1814.41 2200.57C1821.32 2200.57 1827.16 2198.86 1831.92 2195.44C1836.83 2192.02 1840.6 2187.18 1843.21 2180.94C1845.97 2174.7 1847.35 2167.34 1847.35 2158.86C1847.35 2150.53 1845.97 2143.25 1843.21 2137C1840.6 2130.76 1836.83 2126 1831.92 2122.73C1827.16 2119.31 1821.32 2117.6 1814.41 2117.6C1807.65 2117.6 1801.82 2119.31 1796.9 2122.73C1791.99 2126 1788.15 2130.76 1785.39 2137C1782.77 2143.25 1781.47 2150.53 1781.47 2158.86C1781.47 2167.34 1782.77 2174.7 1785.39 2180.94C1788.15 2187.18 1791.99 2192.02 1796.9 2195.44C1801.82 2198.86 1807.65 2200.57 1814.41 2200.57Z" fill="#F0602B"></path><path d="M1884.63 2217.07V2104.89C1889.85 2103.55 1896.53 2102.21 1904.67 2100.87C1912.81 2099.39 1922.18 2098.64 1932.77 2098.64C1945.67 2098.64 1955.66 2100.87 1962.72 2105.33C1969.94 2109.79 1975.01 2116.04 1977.93 2124.07C1980.84 2131.95 1982.3 2141.24 1982.3 2151.95V2217.07H1959.5V2156.41C1959.5 2146.89 1958.57 2139.38 1956.73 2133.88C1955.04 2128.23 1952.12 2124.14 1947.98 2121.61C1943.83 2119.09 1938 2117.82 1930.47 2117.82C1925.4 2117.82 1920.72 2118.12 1916.42 2118.71C1912.27 2119.16 1909.35 2119.61 1907.66 2120.05V2217.07H1884.63Z" fill="#F0602B"></path><path d="M2009.06 2252.76L1991.55 2247.4C1995.08 2239.52 1997.54 2231.64 1998.92 2223.76C2000.46 2216.03 2001.23 2208.74 2001.23 2201.9C2001.23 2200.72 2001.15 2199.45 2001 2198.11C2001 2196.77 2000.92 2195.44 2000.77 2194.1C2000.77 2192.76 2000.69 2191.65 2000.54 2190.75H2025.18C2025.34 2192.98 2025.42 2194.77 2025.42 2196.11C2025.57 2197.3 2025.65 2198.26 2025.65 2199.01C2025.65 2208.08 2024.19 2217.29 2021.27 2226.66C2018.35 2236.03 2014.28 2244.73 2009.06 2252.76Z" fill="#F0602B"></path><path d="M2123.67 2218.63C2117.21 2218.63 2110.15 2218.33 2102.47 2217.74C2094.95 2217.14 2087.88 2216.1 2081.28 2214.62V2065.19C2087.88 2063.7 2095.1 2062.66 2102.93 2062.07C2110.76 2061.32 2117.91 2060.95 2124.36 2060.95C2142.02 2060.95 2157.45 2063.78 2170.66 2069.43C2184.02 2075.08 2194.46 2083.7 2201.99 2095.3C2209.52 2106.89 2213.28 2121.69 2213.28 2139.68C2213.28 2157.37 2209.52 2172.09 2201.99 2183.84C2194.62 2195.44 2184.17 2204.13 2170.66 2209.93C2157.3 2215.73 2141.63 2218.63 2123.67 2218.63ZM2125.51 2198.78C2146.55 2198.78 2162.29 2193.58 2172.73 2183.17C2183.18 2172.61 2188.4 2158.12 2188.4 2139.68C2188.4 2121.09 2183.25 2106.67 2172.96 2096.41C2162.67 2086 2147.09 2080.8 2126.2 2080.8C2120.21 2080.8 2115.53 2080.95 2112.15 2081.25C2108.92 2081.54 2106.54 2081.84 2105.01 2082.14V2197.67C2106.39 2197.82 2108.61 2198.04 2111.69 2198.34C2114.76 2198.63 2119.36 2198.78 2125.51 2198.78Z" fill="#F0602B"></path><path d="M2228.44 2217.07V2106.67C2233.2 2104.89 2239.27 2103.1 2246.64 2101.32C2254.17 2099.53 2262.92 2098.64 2272.9 2098.64C2275.82 2098.64 2278.89 2098.87 2282.12 2099.31C2285.49 2099.61 2288.64 2100.05 2291.56 2100.65C2294.48 2101.1 2296.71 2101.69 2298.24 2102.43L2294.1 2120.95C2292.1 2120.35 2289.1 2119.68 2285.11 2118.94C2281.27 2118.19 2276.59 2117.82 2271.06 2117.82C2266.45 2117.82 2262.3 2118.19 2258.62 2118.94C2255.09 2119.53 2252.71 2120.13 2251.48 2120.72V2217.07H2228.44Z" fill="#F0602B"></path><path d="M2302.75 2217.07V2100.87H2325.79V2217.07H2302.75ZM2314.27 2076.12C2310.12 2076.12 2306.59 2074.85 2303.67 2072.32C2300.76 2069.65 2299.3 2066.08 2299.3 2061.62C2299.3 2057.16 2300.76 2053.66 2303.67 2051.14C2306.59 2048.46 2310.12 2047.12 2314.27 2047.12C2318.42 2047.12 2321.95 2048.46 2324.87 2051.14C2327.79 2053.66 2329.24 2057.16 2329.24 2061.62C2329.24 2066.08 2327.79 2069.65 2324.87 2072.32C2321.95 2074.85 2318.42 2076.12 2314.27 2076.12Z" fill="#F0602B"></path><path d="M2374.62 2217.07C2370.78 2209.34 2366.87 2201.01 2362.87 2192.09C2358.88 2183.17 2354.96 2173.8 2351.12 2163.99C2347.28 2154.03 2343.52 2143.84 2339.84 2133.43C2336.3 2122.88 2333 2112.02 2329.93 2100.87H2354.12C2356.42 2110.39 2359.26 2120.65 2362.64 2131.65C2366.17 2142.65 2369.94 2153.43 2373.93 2163.99C2377.92 2174.4 2381.69 2183.62 2385.22 2191.65C2387.98 2185.7 2390.82 2179.01 2393.74 2171.57C2396.66 2163.99 2399.5 2156.18 2402.27 2148.15C2405.03 2139.98 2407.64 2131.87 2410.1 2123.84C2412.55 2115.67 2414.63 2108.01 2416.32 2100.87H2439.58C2436.51 2112.02 2433.21 2122.88 2429.68 2133.43C2426.15 2143.84 2422.38 2154.03 2418.39 2163.99C2414.55 2173.8 2410.64 2183.17 2406.64 2192.09C2402.8 2201.01 2398.89 2209.34 2394.89 2217.07H2374.62Z" fill="#F0602B"></path><path d="M2498.32 2219.75C2484.19 2219.75 2472.59 2217.14 2463.53 2211.94C2454.62 2206.59 2448.02 2199.38 2443.72 2190.31C2439.57 2181.24 2437.5 2170.9 2437.5 2159.31C2437.5 2145.63 2440.11 2134.33 2445.33 2125.41C2450.55 2116.34 2457.31 2109.57 2465.61 2105.11C2474.05 2100.5 2482.88 2098.2 2492.1 2098.2C2502.54 2098.2 2511.53 2100.35 2519.05 2104.66C2526.73 2108.83 2532.64 2115.22 2536.79 2123.84C2540.94 2132.32 2543.01 2143.1 2543.01 2156.18C2543.01 2157.52 2542.93 2159.01 2542.78 2160.64C2542.78 2162.28 2542.7 2163.84 2542.55 2165.33H2461C2461.77 2176.33 2465.3 2184.95 2471.59 2191.2C2478.05 2197.3 2487.64 2200.34 2500.39 2200.34C2507.76 2200.34 2514.06 2199.67 2519.28 2198.34C2524.66 2197 2528.73 2195.73 2531.49 2194.54L2534.95 2212.83C2532.34 2214.17 2527.57 2215.66 2520.66 2217.29C2513.91 2218.93 2506.46 2219.75 2498.32 2219.75ZM2461.46 2148.6H2520.43C2520.28 2142.36 2519.13 2136.85 2516.98 2132.1C2514.83 2127.34 2511.68 2123.62 2507.53 2120.95C2503.54 2118.27 2498.47 2116.93 2492.33 2116.93C2486.03 2116.93 2480.66 2118.42 2476.2 2121.39C2471.75 2124.36 2468.29 2128.3 2465.84 2133.21C2463.38 2137.97 2461.92 2143.1 2461.46 2148.6Z" fill="#F0602B"></path><path d="M2557.18 2217.07V2104.89C2562.4 2103.55 2569.08 2102.21 2577.22 2100.87C2585.36 2099.39 2594.73 2098.64 2605.33 2098.64C2618.23 2098.64 2628.21 2100.87 2635.28 2105.33C2642.49 2109.79 2647.56 2116.04 2650.48 2124.07C2653.4 2131.95 2654.86 2141.24 2654.86 2151.95V2217.07H2632.05V2156.41C2632.05 2146.89 2631.13 2139.38 2629.29 2133.88C2627.6 2128.23 2624.68 2124.14 2620.53 2121.61C2616.39 2119.09 2610.55 2117.82 2603.02 2117.82C2597.96 2117.82 2593.27 2118.12 2588.97 2118.71C2584.83 2119.16 2581.91 2119.61 2580.22 2120.05V2217.07H2557.18Z" fill="#F0602B"></path><path d="M2757.5 2219.75C2751.2 2219.75 2745.21 2219.45 2739.53 2218.85C2733.85 2218.26 2728.62 2217.44 2723.86 2216.4C2719.26 2215.36 2715.19 2214.39 2711.65 2213.5V2047.79L2734.69 2044V2106.23C2737.76 2104.44 2741.83 2102.73 2746.9 2101.1C2752.12 2099.31 2757.96 2098.42 2764.41 2098.42C2775.93 2098.42 2785.6 2101.02 2793.43 2106.23C2801.42 2111.28 2807.49 2118.34 2811.63 2127.41C2815.93 2136.48 2818.08 2147.04 2818.08 2159.08C2818.08 2171.57 2815.55 2182.35 2810.48 2191.42C2805.57 2200.49 2798.58 2207.48 2789.52 2212.39C2780.61 2217.29 2769.94 2219.75 2757.5 2219.75ZM2757.27 2200.57C2764.95 2200.57 2771.55 2198.93 2777.08 2195.66C2782.61 2192.24 2786.83 2187.41 2789.75 2181.16C2792.82 2174.92 2794.36 2167.41 2794.36 2158.64C2794.36 2152.69 2793.74 2147.26 2792.51 2142.36C2791.28 2137.3 2789.29 2132.91 2786.52 2129.2C2783.91 2125.48 2780.46 2122.65 2776.16 2120.72C2772.01 2118.79 2766.94 2117.82 2760.95 2117.82C2755.27 2117.82 2750.05 2118.71 2745.29 2120.5C2740.68 2122.13 2737.15 2123.84 2734.69 2125.63V2198.11C2736.69 2198.71 2739.53 2199.3 2743.21 2199.9C2747.05 2200.34 2751.74 2200.57 2757.27 2200.57Z" fill="#F0602B"></path><path d="M2832.82 2258.78C2828.52 2258.78 2824.45 2258.33 2820.61 2257.44C2816.92 2256.55 2814.23 2255.65 2812.55 2254.76L2816.92 2237.14C2818.61 2237.74 2820.92 2238.41 2823.83 2239.15C2826.75 2239.89 2829.67 2240.27 2832.59 2240.27C2837.81 2240.27 2842.19 2239.45 2845.72 2237.81C2849.4 2236.33 2852.55 2233.8 2855.16 2230.23C2857.93 2226.66 2860.38 2222.13 2862.54 2216.62C2856.39 2205.32 2850.48 2193.43 2844.8 2180.94C2839.11 2168.45 2833.82 2155.44 2828.9 2141.91C2823.99 2128.38 2819.61 2114.7 2815.77 2100.87H2839.96C2841.49 2107.56 2843.41 2114.7 2845.72 2122.28C2848.18 2129.87 2850.86 2137.75 2853.78 2145.92C2856.7 2153.95 2859.85 2162.06 2863.23 2170.23C2866.61 2178.26 2870.06 2186.07 2873.59 2193.65C2877.43 2183.39 2880.89 2173.28 2883.96 2163.32C2887.03 2153.21 2889.95 2143.02 2892.71 2132.77C2895.48 2122.36 2898.17 2111.73 2900.78 2100.87H2924.04C2920.2 2115.44 2916.13 2129.72 2911.83 2143.69C2907.53 2157.52 2903 2170.9 2898.24 2183.84C2893.48 2196.63 2888.41 2208.89 2883.04 2220.64C2879.04 2229.56 2874.82 2236.85 2870.37 2242.5C2866.07 2248.15 2860.92 2252.23 2854.93 2254.76C2849.1 2257.44 2841.73 2258.78 2832.82 2258.78Z" fill="#F0602B"></path><path d="M2969.27 2217.07V2062.51H2993V2217.07H2969.27Z" fill="#F0602B"></path><path d="M3015.2 2217.07V2104.89C3020.42 2103.55 3027.1 2102.21 3035.24 2100.87C3043.38 2099.39 3052.75 2098.64 3063.35 2098.64C3076.25 2098.64 3086.23 2100.87 3093.29 2105.33C3100.51 2109.79 3105.58 2116.04 3108.5 2124.07C3111.42 2131.95 3112.87 2141.24 3112.87 2151.95V2217.07H3090.07V2156.41C3090.07 2146.89 3089.15 2139.38 3087.3 2133.88C3085.61 2128.23 3082.7 2124.14 3078.55 2121.61C3074.4 2119.09 3068.57 2117.82 3061.04 2117.82C3055.97 2117.82 3051.29 2118.12 3046.99 2118.71C3042.84 2119.16 3039.92 2119.61 3038.24 2120.05V2217.07H3015.2Z" fill="#F0602B"></path><path d="M3173.73 2219.52C3162.82 2219.52 3154.22 2217.74 3147.92 2214.17C3141.78 2210.45 3137.4 2205.03 3134.79 2197.89C3132.34 2190.75 3131.11 2182.13 3131.11 2172.02V2068.98L3153.91 2065.19V2100.87H3198.83V2119.38H3153.91V2172.69C3153.91 2179.68 3154.76 2185.25 3156.45 2189.41C3158.14 2193.43 3160.59 2196.25 3163.82 2197.89C3167.2 2199.53 3171.34 2200.34 3176.26 2200.34C3181.48 2200.34 3186.01 2199.82 3189.85 2198.78C3193.84 2197.59 3197.15 2196.48 3199.76 2195.44L3203.67 2213.06C3200.75 2214.39 3196.68 2215.81 3191.46 2217.29C3186.24 2218.78 3180.33 2219.52 3173.73 2219.52Z" fill="#F0602B"></path><path d="M3262.96 2219.75C3248.83 2219.75 3237.23 2217.14 3228.17 2211.94C3219.26 2206.59 3212.66 2199.38 3208.36 2190.31C3204.21 2181.24 3202.14 2170.9 3202.14 2159.31C3202.14 2145.63 3204.75 2134.33 3209.97 2125.41C3215.19 2116.34 3221.95 2109.57 3230.24 2105.11C3238.69 2100.5 3247.52 2098.2 3256.74 2098.2C3267.18 2098.2 3276.16 2100.35 3283.69 2104.66C3291.37 2108.83 3297.28 2115.22 3301.43 2123.84C3305.57 2132.32 3307.65 2143.1 3307.65 2156.18C3307.65 2157.52 3307.57 2159.01 3307.42 2160.64C3307.42 2162.28 3307.34 2163.84 3307.19 2165.33H3225.64C3226.4 2176.33 3229.94 2184.95 3236.23 2191.2C3242.68 2197.3 3252.28 2200.34 3265.03 2200.34C3272.4 2200.34 3278.7 2199.67 3283.92 2198.34C3289.3 2197 3293.36 2195.73 3296.13 2194.54L3299.58 2212.83C3296.97 2214.17 3292.21 2215.66 3285.3 2217.29C3278.54 2218.93 3271.1 2219.75 3262.96 2219.75ZM3226.1 2148.6H3285.07C3284.92 2142.36 3283.77 2136.85 3281.62 2132.1C3279.47 2127.34 3276.32 2123.62 3272.17 2120.95C3268.18 2118.27 3263.11 2116.93 3256.97 2116.93C3250.67 2116.93 3245.29 2118.42 3240.84 2121.39C3236.39 2124.36 3232.93 2128.3 3230.47 2133.21C3228.02 2137.97 3226.56 2143.1 3226.1 2148.6Z" fill="#F0602B"></path><path d="M3359.37 2219.08C3350.16 2218.78 3342.78 2217.44 3337.26 2215.06C3331.73 2212.54 3327.73 2208.82 3325.28 2203.91C3322.97 2199.01 3321.82 2192.69 3321.82 2184.95V2047.79L3344.63 2044V2182.05C3344.63 2188.75 3345.86 2193.36 3348.31 2195.88C3350.92 2198.41 3355.68 2200.05 3362.6 2200.79L3359.37 2219.08Z" fill="#F0602B"></path><path d="M3407.81 2219.08C3398.6 2218.78 3391.22 2217.44 3385.7 2215.06C3380.17 2212.54 3376.17 2208.82 3373.72 2203.91C3371.41 2199.01 3370.26 2192.69 3370.26 2184.95V2047.79L3393.07 2044V2182.05C3393.07 2188.75 3394.3 2193.36 3396.75 2195.88C3399.36 2198.41 3404.12 2200.05 3411.04 2200.79L3407.81 2219.08Z" fill="#F0602B"></path><path d="M3418.7 2217.07V2100.87H3441.74V2217.07H3418.7ZM3430.22 2076.12C3426.07 2076.12 3422.54 2074.85 3419.62 2072.32C3416.7 2069.65 3415.25 2066.08 3415.25 2061.62C3415.25 2057.16 3416.7 2053.66 3419.62 2051.14C3422.54 2048.46 3426.07 2047.12 3430.22 2047.12C3434.37 2047.12 3437.9 2048.46 3440.82 2051.14C3443.73 2053.66 3445.19 2057.16 3445.19 2061.62C3445.19 2066.08 3443.73 2069.65 3440.82 2072.32C3437.9 2074.85 3434.37 2076.12 3430.22 2076.12Z" fill="#F0602B"></path><path d="M3501.36 2259C3493.83 2259 3486.69 2258.41 3479.94 2257.22C3473.18 2256.03 3467.27 2254.54 3462.2 2252.76L3466.34 2233.8C3470.8 2235.43 3476.1 2236.85 3482.24 2238.04C3488.38 2239.37 3494.91 2240.04 3501.82 2240.04C3510.11 2240.04 3516.79 2239 3521.86 2236.92C3527.08 2234.84 3530.85 2231.57 3533.15 2227.11C3535.61 2222.65 3536.84 2217 3536.84 2210.16V2203.91C3534.23 2205.4 3530.46 2207.03 3525.55 2208.82C3520.79 2210.45 3514.95 2211.27 3508.04 2211.27C3498.06 2211.27 3489.07 2209.34 3481.09 2205.47C3473.1 2201.46 3466.8 2195.36 3462.2 2187.18C3457.74 2179.01 3455.52 2168.6 3455.52 2155.96C3455.52 2144.81 3457.82 2134.92 3462.43 2126.3C3467.19 2117.67 3473.95 2110.91 3482.7 2106C3491.45 2101.1 3501.9 2098.64 3514.03 2098.64C3523.86 2098.64 3532.61 2099.31 3540.29 2100.65C3547.97 2101.99 3554.34 2103.4 3559.41 2104.89V2207.7C3559.41 2225.69 3554.57 2238.7 3544.9 2246.73C3535.38 2254.91 3520.86 2259 3501.36 2259ZM3510.57 2192.76C3515.95 2192.76 3520.94 2192.02 3525.55 2190.53C3530.31 2189.04 3533.99 2187.26 3536.61 2185.18V2119.61C3534.46 2119.01 3531.61 2118.49 3528.08 2118.05C3524.7 2117.45 3520.1 2117.15 3514.26 2117.15C3506.73 2117.15 3500.36 2118.79 3495.14 2122.06C3489.92 2125.33 3485.92 2129.94 3483.16 2135.89C3480.4 2141.69 3479.01 2148.45 3479.01 2156.18C3479.01 2162.58 3479.86 2168.08 3481.55 2172.69C3483.24 2177.3 3485.54 2181.09 3488.46 2184.06C3491.38 2187.04 3494.68 2189.27 3498.36 2190.75C3502.2 2192.09 3506.27 2192.76 3510.57 2192.76Z" fill="#F0602B"></path><path d="M3634.06 2219.75C3619.93 2219.75 3608.34 2217.14 3599.28 2211.94C3590.37 2206.59 3583.77 2199.38 3579.47 2190.31C3575.32 2181.24 3573.25 2170.9 3573.25 2159.31C3573.25 2145.63 3575.86 2134.33 3581.08 2125.41C3586.3 2116.34 3593.06 2109.57 3601.35 2105.11C3609.8 2100.5 3618.63 2098.2 3627.84 2098.2C3638.29 2098.2 3647.27 2100.35 3654.8 2104.66C3662.48 2108.83 3668.39 2115.22 3672.53 2123.84C3676.68 2132.32 3678.75 2143.1 3678.75 2156.18C3678.75 2157.52 3678.68 2159.01 3678.52 2160.64C3678.52 2162.28 3678.45 2163.84 3678.29 2165.33H3596.74C3597.51 2176.33 3601.04 2184.95 3607.34 2191.2C3613.79 2197.3 3623.39 2200.34 3636.14 2200.34C3643.51 2200.34 3649.81 2199.67 3655.03 2198.34C3660.4 2197 3664.47 2195.73 3667.24 2194.54L3670.69 2212.83C3668.08 2214.17 3663.32 2215.66 3656.41 2217.29C3649.65 2218.93 3642.2 2219.75 3634.06 2219.75ZM3597.2 2148.6H3656.18C3656.03 2142.36 3654.87 2136.85 3652.72 2132.1C3650.57 2127.34 3647.42 2123.62 3643.28 2120.95C3639.29 2118.27 3634.22 2116.93 3628.07 2116.93C3621.78 2116.93 3616.4 2118.42 3611.95 2121.39C3607.49 2124.36 3604.04 2128.3 3601.58 2133.21C3599.12 2137.97 3597.67 2143.1 3597.2 2148.6Z" fill="#F0602B"></path><path d="M3692.93 2217.07V2104.89C3698.15 2103.55 3704.83 2102.21 3712.97 2100.87C3721.11 2099.39 3730.48 2098.64 3741.07 2098.64C3753.97 2098.64 3763.96 2100.87 3771.02 2105.33C3778.24 2109.79 3783.31 2116.04 3786.23 2124.07C3789.14 2131.95 3790.6 2141.24 3790.6 2151.95V2217.07H3767.8V2156.41C3767.8 2146.89 3766.88 2139.38 3765.03 2133.88C3763.34 2128.23 3760.43 2124.14 3756.28 2121.61C3752.13 2119.09 3746.3 2117.82 3738.77 2117.82C3733.7 2117.82 3729.02 2118.12 3724.72 2118.71C3720.57 2119.16 3717.65 2119.61 3715.96 2120.05V2217.07H3692.93Z" fill="#F0602B"></path><path d="M3862.51 2219.75C3849.15 2219.75 3838.09 2217.22 3829.34 2212.16C3820.59 2206.96 3814.06 2199.82 3809.76 2190.75C3805.46 2181.53 3803.31 2170.98 3803.31 2159.08C3803.31 2147.34 3805.61 2136.93 3810.22 2127.86C3814.83 2118.64 3821.43 2111.43 3830.03 2106.23C3838.78 2100.87 3849.23 2098.2 3861.36 2098.2C3867.66 2098.2 3873.57 2098.72 3879.1 2099.76C3884.78 2100.8 3889.47 2102.21 3893.15 2103.99L3888.08 2122.06C3884.86 2120.87 3881.33 2119.83 3877.49 2118.94C3873.65 2118.05 3868.81 2117.6 3862.97 2117.6C3851.15 2117.6 3842.16 2121.32 3836.02 2128.75C3829.88 2136.04 3826.81 2146.15 3826.81 2159.08C3826.81 2167.41 3828.03 2174.7 3830.49 2180.94C3833.1 2187.04 3837.25 2191.79 3842.93 2195.21C3848.61 2198.63 3856.14 2200.34 3865.51 2200.34C3870.88 2200.34 3875.87 2199.82 3880.48 2198.78C3885.09 2197.59 3888.7 2196.33 3891.31 2194.99L3895.22 2213.5C3892 2215.14 3887.39 2216.55 3881.4 2217.74C3875.41 2219.08 3869.12 2219.75 3862.51 2219.75Z" fill="#F0602B"></path><path d="M3955.31 2219.75C3941.18 2219.75 3929.58 2217.14 3920.52 2211.94C3911.62 2206.59 3905.01 2199.38 3900.71 2190.31C3896.56 2181.24 3894.49 2170.9 3894.49 2159.31C3894.49 2145.63 3897.1 2134.33 3902.32 2125.41C3907.55 2116.34 3914.3 2109.57 3922.6 2105.11C3931.04 2100.5 3939.87 2098.2 3949.09 2098.2C3959.53 2098.2 3968.52 2100.35 3976.04 2104.66C3983.72 2108.83 3989.63 2115.22 3993.78 2123.84C3997.93 2132.32 4000 2143.1 4000 2156.18C4000 2157.52 3999.92 2159.01 3999.77 2160.64C3999.77 2162.28 3999.69 2163.84 3999.54 2165.33H3917.99C3918.76 2176.33 3922.29 2184.95 3928.59 2191.2C3935.04 2197.3 3944.63 2200.34 3957.38 2200.34C3964.75 2200.34 3971.05 2199.67 3976.27 2198.34C3981.65 2197 3985.72 2195.73 3988.48 2194.54L3991.94 2212.83C3989.33 2214.17 3984.57 2215.66 3977.65 2217.29C3970.9 2218.93 3963.45 2219.75 3955.31 2219.75ZM3918.45 2148.6H3977.42C3977.27 2142.36 3976.12 2136.85 3973.97 2132.1C3971.82 2127.34 3968.67 2123.62 3964.52 2120.95C3960.53 2118.27 3955.46 2116.93 3949.32 2116.93C3943.02 2116.93 3937.65 2118.42 3933.19 2121.39C3928.74 2124.36 3925.28 2128.3 3922.83 2133.21C3920.37 2137.97 3918.91 2143.1 3918.45 2148.6Z" fill="#F0602B"></path><path d="M3781.11 794V723.731H3754V712H3822.98V723.731H3795.86V794H3781.11Z" fill="#F0602B"></path><path d="M3833.19 794V712H3856.11L3881.07 791.039H3873.01L3897.97 712H3921V794H3906.48V716.897H3908.86L3884.58 794H3868.81L3844.76 717.581H3847.03V794H3833.19Z" fill="#F0602B"></path></g><defs><clipPath id="clip0_45_161"><rect width="4000" height="2477" fill="white"></rect></clipPath></defs></svg>